<svg aria-roledescription="er" role="graphics-document document" viewBox="0 0 743.2877197265625 873" style="width: 100%;" xmlns="http://www.w3.org/2000/svg" width="100%" id="diagram-gen"><style>#diagram-gen{font-family:"trebuchet ms",verdana,arial,sans-serif;font-size:16px;fill:#333;}#diagram-gen .error-icon{fill:#552222;}#diagram-gen .error-text{fill:#552222;stroke:#552222;}#diagram-gen .edge-thickness-normal{stroke-width:2px;}#diagram-gen .edge-thickness-thick{stroke-width:3.5px;}#diagram-gen .edge-pattern-solid{stroke-dasharray:0;}#diagram-gen .edge-pattern-dashed{stroke-dasharray:3;}#diagram-gen .edge-pattern-dotted{stroke-dasharray:2;}#diagram-gen .marker{fill:#333333;stroke:#333333;}#diagram-gen .marker.cross{stroke:#333333;}#diagram-gen svg{font-family:"trebuchet ms",verdana,arial,sans-serif;font-size:16px;}#diagram-gen .entityBox{fill:#ECECFF;stroke:#9370DB;}#diagram-gen .attributeBoxOdd{fill:#ffffff;stroke:#9370DB;}#diagram-gen .attributeBoxEven{fill:#f2f2f2;stroke:#9370DB;}#diagram-gen .relationshipLabelBox{fill:hsl(80, 100%, 96.2745098039%);opacity:0.7;background-color:hsl(80, 100%, 96.2745098039%);}#diagram-gen .relationshipLabelBox rect{opacity:0.5;}#diagram-gen .relationshipLine{stroke:#333333;}#diagram-gen .entityTitleText{text-anchor:middle;font-size:18px;fill:#333;}#diagram-gen #MD_PARENT_START{fill:#f5f5f5!important;stroke:#333333!important;stroke-width:1;}#diagram-gen #MD_PARENT_END{fill:#f5f5f5!important;stroke:#333333!important;stroke-width:1;}#diagram-gen :root{--mermaid-font-family:"trebuchet ms",verdana,arial,sans-serif;}</style><g></g><defs><marker orient="auto" markerHeight="240" markerWidth="190" refY="7" refX="0" id="MD_PARENT_START"><path d="M 18,7 L9,13 L1,7 L9,1 Z"></path></marker></defs><defs><marker orient="auto" markerHeight="28" markerWidth="20" refY="7" refX="19" id="MD_PARENT_END"><path d="M 18,7 L9,13 L1,7 L9,1 Z"></path></marker></defs><defs><marker orient="auto" markerHeight="18" markerWidth="18" refY="9" refX="0" id="ONLY_ONE_START"><path d="M9,0 L9,18 M15,0 L15,18" fill="none" stroke="gray"></path></marker></defs><defs><marker orient="auto" markerHeight="18" markerWidth="18" refY="9" refX="18" id="ONLY_ONE_END"><path d="M3,0 L3,18 M9,0 L9,18" fill="none" stroke="gray"></path></marker></defs><defs><marker orient="auto" markerHeight="18" markerWidth="30" refY="9" refX="0" id="ZERO_OR_ONE_START"><circle r="6" cy="9" cx="21" fill="white" stroke="gray"></circle><path d="M9,0 L9,18" fill="none" stroke="gray"></path></marker></defs><defs><marker orient="auto" markerHeight="18" markerWidth="30" refY="9" refX="30" id="ZERO_OR_ONE_END"><circle r="6" cy="9" cx="9" fill="white" stroke="gray"></circle><path d="M21,0 L21,18" fill="none" stroke="gray"></path></marker></defs><defs><marker orient="auto" markerHeight="36" markerWidth="45" refY="18" refX="18" id="ONE_OR_MORE_START"><path d="M0,18 Q 18,0 36,18 Q 18,36 0,18 M42,9 L42,27" fill="none" stroke="gray"></path></marker></defs><defs><marker orient="auto" markerHeight="36" markerWidth="45" refY="18" refX="27" id="ONE_OR_MORE_END"><path d="M3,9 L3,27 M9,18 Q27,0 45,18 Q27,36 9,18" fill="none" stroke="gray"></path></marker></defs><defs><marker orient="auto" markerHeight="36" markerWidth="57" refY="18" refX="18" id="ZERO_OR_MORE_START"><circle r="6" cy="18" cx="48" fill="white" stroke="gray"></circle><path d="M0,18 Q18,0 36,18 Q18,36 0,18" fill="none" stroke="gray"></path></marker></defs><defs><marker orient="auto" markerHeight="36" markerWidth="57" refY="18" refX="39" id="ZERO_OR_MORE_END"><circle r="6" cy="18" cx="9" fill="white" stroke="gray"></circle><path d="M21,18 Q39,0 57,18 Q39,36 21,18" fill="none" stroke="gray"></path></marker></defs><path style="stroke: gray; fill: none;" marker-start="url(#ONLY_ONE_START)" marker-end="url(#ZERO_OR_MORE_END)" stroke-dasharray="8,8" d="M281.901,134.076L252.692,147.897C223.484,161.717,165.068,189.359,135.86,215.513C106.651,241.667,106.651,266.333,106.651,278.667L106.651,291" class="er relationshipLine"></path><path style="stroke: gray; fill: none;" marker-start="url(#ONLY_ONE_START)" marker-end="url(#ZERO_OR_MORE_END)" d="M448.78,167L457.978,175.333C467.176,183.667,485.572,200.333,494.77,217C503.968,233.667,503.968,250.333,503.968,258.667L503.968,267" class="er relationshipLine"></path><path style="stroke: gray; fill: none;" marker-start="url(#ONLY_ONE_START)" marker-end="url(#ZERO_OR_MORE_END)" d="M417.989,459.61L410.096,468.342C402.202,477.073,386.415,494.537,378.522,511.602C370.629,528.667,370.629,545.333,370.629,553.667L370.629,562" class="er relationshipLine"></path><path style="stroke: gray; fill: none;" marker-start="url(#ONLY_ONE_START)" marker-end="url(#ZERO_OR_MORE_END)" d="M589.948,459.61L597.841,468.342C605.735,477.073,621.521,494.537,629.415,519.602C637.308,544.667,637.308,577.333,637.308,593.667L637.308,610" class="er relationshipLine"></path><path style="stroke: gray; fill: none;" marker-start="url(#ONLY_ONE_START)" marker-end="url(#ZERO_OR_MORE_END)" d="M106.651,438L106.651,450.333C106.651,462.667,106.651,487.333,106.651,516C106.651,544.667,106.651,577.333,106.651,593.667L106.651,610" class="er relationshipLine"></path><g transform="translate(281.9005928039551,20 )" id="entity-USERS-1e82e395-936c-57a7-8ba9-b08f03574b93"><rect height="147" width="171.50486755371094" y="0" x="0" class="er entityBox"></rect><text style="dominant-baseline: middle; text-anchor: middle; font-size: 12px;" transform="translate(85.75243377685547,13.5)" y="0" x="0" id="text-entity-USERS-1e82e395-936c-57a7-8ba9-b08f03574b93" class="er entityLabel">USERS</text><rect height="24" width="74.51469421386719" y="27" x="0" class="er attributeBoxOdd"></rect><text style="dominant-baseline: middle; font-size: 10.2px;" transform="translate(5,39)" y="0" x="0" id="text-entity-USERS-1e82e395-936c-57a7-8ba9-b08f03574b93-attr-1-type" class="er entityLabel">id</text><rect height="24" width="75.17317199707031" y="27" x="74.51469421386719" class="er attributeBoxOdd"></rect><text style="dominant-baseline: middle; font-size: 10.2px;" transform="translate(79.51469421386719,39)" y="0" x="0" id="text-entity-USERS-1e82e395-936c-57a7-8ba9-b08f03574b93-attr-1-name" class="er entityLabel">INTEGER</text><rect height="24" width="21.817001342773438" y="27" x="149.6878662109375" class="er attributeBoxOdd"></rect><text style="dominant-baseline: middle; font-size: 10.2px;" transform="translate(154.6878662109375,39)" y="0" x="0" id="text-entity-USERS-1e82e395-936c-57a7-8ba9-b08f03574b93-attr-1-key" class="er entityLabel">PK</text><rect height="24" width="74.51469421386719" y="51" x="0" class="er attributeBoxEven"></rect><text style="dominant-baseline: middle; font-size: 10.2px;" transform="translate(5,63)" y="0" x="0" id="text-entity-USERS-1e82e395-936c-57a7-8ba9-b08f03574b93-attr-2-type" class="er entityLabel">username</text><rect height="24" width="75.17317199707031" y="51" x="74.51469421386719" class="er attributeBoxEven"></rect><text style="dominant-baseline: middle; font-size: 10.2px;" transform="translate(79.51469421386719,63)" y="0" x="0" id="text-entity-USERS-1e82e395-936c-57a7-8ba9-b08f03574b93-attr-2-name" class="er entityLabel">VARCHAR(100)</text><rect height="24" width="21.817001342773438" y="51" x="149.6878662109375" class="er attributeBoxEven"></rect><text style="dominant-baseline: middle; font-size: 10.2px;" transform="translate(154.6878662109375,63)" y="0" x="0" id="text-entity-USERS-1e82e395-936c-57a7-8ba9-b08f03574b93-attr-2-key" class="er entityLabel"></text><rect height="24" width="74.51469421386719" y="75" x="0" class="er attributeBoxOdd"></rect><text style="dominant-baseline: middle; font-size: 10.2px;" transform="translate(5,87)" y="0" x="0" id="text-entity-USERS-1e82e395-936c-57a7-8ba9-b08f03574b93-attr-3-type" class="er entityLabel">email</text><rect height="24" width="75.17317199707031" y="75" x="74.51469421386719" class="er attributeBoxOdd"></rect><text style="dominant-baseline: middle; font-size: 10.2px;" transform="translate(79.51469421386719,87)" y="0" x="0" id="text-entity-USERS-1e82e395-936c-57a7-8ba9-b08f03574b93-attr-3-name" class="er entityLabel">VARCHAR(50)</text><rect height="24" width="21.817001342773438" y="75" x="149.6878662109375" class="er attributeBoxOdd"></rect><text style="dominant-baseline: middle; font-size: 10.2px;" transform="translate(154.6878662109375,87)" y="0" x="0" id="text-entity-USERS-1e82e395-936c-57a7-8ba9-b08f03574b93-attr-3-key" class="er entityLabel"></text><rect height="24" width="74.51469421386719" y="99" x="0" class="er attributeBoxEven"></rect><text style="dominant-baseline: middle; font-size: 10.2px;" transform="translate(5,111)" y="0" x="0" id="text-entity-USERS-1e82e395-936c-57a7-8ba9-b08f03574b93-attr-4-type" class="er entityLabel">spentTotal</text><rect height="24" width="75.17317199707031" y="99" x="74.51469421386719" class="er attributeBoxEven"></rect><text style="dominant-baseline: middle; font-size: 10.2px;" transform="translate(79.51469421386719,111)" y="0" x="0" id="text-entity-USERS-1e82e395-936c-57a7-8ba9-b08f03574b93-attr-4-name" class="er entityLabel">INT</text><rect height="24" width="21.817001342773438" y="99" x="149.6878662109375" class="er attributeBoxEven"></rect><text style="dominant-baseline: middle; font-size: 10.2px;" transform="translate(154.6878662109375,111)" y="0" x="0" id="text-entity-USERS-1e82e395-936c-57a7-8ba9-b08f03574b93-attr-4-key" class="er entityLabel"></text><rect height="24" width="74.51469421386719" y="123" x="0" class="er attributeBoxOdd"></rect><text style="dominant-baseline: middle; font-size: 10.2px;" transform="translate(5,135)" y="0" x="0" id="text-entity-USERS-1e82e395-936c-57a7-8ba9-b08f03574b93-attr-5-type" class="er entityLabel">accountStatus</text><rect height="24" width="75.17317199707031" y="123" x="74.51469421386719" class="er attributeBoxOdd"></rect><text style="dominant-baseline: middle; font-size: 10.2px;" transform="translate(79.51469421386719,135)" y="0" x="0" id="text-entity-USERS-1e82e395-936c-57a7-8ba9-b08f03574b93-attr-5-name" class="er entityLabel">VARCHAR(10)</text><rect height="24" width="21.817001342773438" y="123" x="149.6878662109375" class="er attributeBoxOdd"></rect><text style="dominant-baseline: middle; font-size: 10.2px;" transform="translate(154.6878662109375,135)" y="0" x="0" id="text-entity-USERS-1e82e395-936c-57a7-8ba9-b08f03574b93-attr-5-key" class="er entityLabel"></text></g><g transform="translate(417.98896408081055,267 )" id="entity-TOURISTPLACES-70ee94bd-f4a0-5d2b-9c19-da2ff545fffb"><rect height="195" width="171.95892333984375" y="0" x="0" class="er entityBox"></rect><text style="dominant-baseline: middle; text-anchor: middle; font-size: 12px;" transform="translate(85.97946166992188,13.5)" y="0" x="0" id="text-entity-TOURISTPLACES-70ee94bd-f4a0-5d2b-9c19-da2ff545fffb" class="er entityLabel">TOURIST_PLACES</text><rect height="24" width="74.96875" y="27" x="0" class="er attributeBoxOdd"></rect><text style="dominant-baseline: middle; font-size: 10.2px;" transform="translate(5,39)" y="0" x="0" id="text-entity-TOURISTPLACES-70ee94bd-f4a0-5d2b-9c19-da2ff545fffb-attr-1-type" class="er entityLabel">id</text><rect height="24" width="75.17317199707031" y="27" x="74.96875" class="er attributeBoxOdd"></rect><text style="dominant-baseline: middle; font-size: 10.2px;" transform="translate(79.96875,39)" y="0" x="0" id="text-entity-TOURISTPLACES-70ee94bd-f4a0-5d2b-9c19-da2ff545fffb-attr-1-name" class="er entityLabel">INTEGER</text><rect height="24" width="21.817001342773438" y="27" x="150.1419219970703" class="er attributeBoxOdd"></rect><text style="dominant-baseline: middle; font-size: 10.2px;" transform="translate(155.1419219970703,39)" y="0" x="0" id="text-entity-TOURISTPLACES-70ee94bd-f4a0-5d2b-9c19-da2ff545fffb-attr-1-key" class="er entityLabel">PK</text><rect height="24" width="74.96875" y="51" x="0" class="er attributeBoxEven"></rect><text style="dominant-baseline: middle; font-size: 10.2px;" transform="translate(5,63)" y="0" x="0" id="text-entity-TOURISTPLACES-70ee94bd-f4a0-5d2b-9c19-da2ff545fffb-attr-2-type" class="er entityLabel">name</text><rect height="24" width="75.17317199707031" y="51" x="74.96875" class="er attributeBoxEven"></rect><text style="dominant-baseline: middle; font-size: 10.2px;" transform="translate(79.96875,63)" y="0" x="0" id="text-entity-TOURISTPLACES-70ee94bd-f4a0-5d2b-9c19-da2ff545fffb-attr-2-name" class="er entityLabel">VARCHAR(100)</text><rect height="24" width="21.817001342773438" y="51" x="150.1419219970703" class="er attributeBoxEven"></rect><text style="dominant-baseline: middle; font-size: 10.2px;" transform="translate(155.1419219970703,63)" y="0" x="0" id="text-entity-TOURISTPLACES-70ee94bd-f4a0-5d2b-9c19-da2ff545fffb-attr-2-key" class="er entityLabel"></text><rect height="24" width="74.96875" y="75" x="0" class="er attributeBoxOdd"></rect><text style="dominant-baseline: middle; font-size: 10.2px;" transform="translate(5,87)" y="0" x="0" id="text-entity-TOURISTPLACES-70ee94bd-f4a0-5d2b-9c19-da2ff545fffb-attr-3-type" class="er entityLabel">description</text><rect height="24" width="75.17317199707031" y="75" x="74.96875" class="er attributeBoxOdd"></rect><text style="dominant-baseline: middle; font-size: 10.2px;" transform="translate(79.96875,87)" y="0" x="0" id="text-entity-TOURISTPLACES-70ee94bd-f4a0-5d2b-9c19-da2ff545fffb-attr-3-name" class="er entityLabel">VARCHAR(500)</text><rect height="24" width="21.817001342773438" y="75" x="150.1419219970703" class="er attributeBoxOdd"></rect><text style="dominant-baseline: middle; font-size: 10.2px;" transform="translate(155.1419219970703,87)" y="0" x="0" id="text-entity-TOURISTPLACES-70ee94bd-f4a0-5d2b-9c19-da2ff545fffb-attr-3-key" class="er entityLabel"></text><rect height="24" width="74.96875" y="99" x="0" class="er attributeBoxEven"></rect><text style="dominant-baseline: middle; font-size: 10.2px;" transform="translate(5,111)" y="0" x="0" id="text-entity-TOURISTPLACES-70ee94bd-f4a0-5d2b-9c19-da2ff545fffb-attr-4-type" class="er entityLabel">stars</text><rect height="24" width="75.17317199707031" y="99" x="74.96875" class="er attributeBoxEven"></rect><text style="dominant-baseline: middle; font-size: 10.2px;" transform="translate(79.96875,111)" y="0" x="0" id="text-entity-TOURISTPLACES-70ee94bd-f4a0-5d2b-9c19-da2ff545fffb-attr-4-name" class="er entityLabel">NUMBER(32)</text><rect height="24" width="21.817001342773438" y="99" x="150.1419219970703" class="er attributeBoxEven"></rect><text style="dominant-baseline: middle; font-size: 10.2px;" transform="translate(155.1419219970703,111)" y="0" x="0" id="text-entity-TOURISTPLACES-70ee94bd-f4a0-5d2b-9c19-da2ff545fffb-attr-4-key" class="er entityLabel"></text><rect height="24" width="74.96875" y="123" x="0" class="er attributeBoxOdd"></rect><text style="dominant-baseline: middle; font-size: 10.2px;" transform="translate(5,135)" y="0" x="0" id="text-entity-TOURISTPLACES-70ee94bd-f4a0-5d2b-9c19-da2ff545fffb-attr-5-type" class="er entityLabel">price</text><rect height="24" width="75.17317199707031" y="123" x="74.96875" class="er attributeBoxOdd"></rect><text style="dominant-baseline: middle; font-size: 10.2px;" transform="translate(79.96875,135)" y="0" x="0" id="text-entity-TOURISTPLACES-70ee94bd-f4a0-5d2b-9c19-da2ff545fffb-attr-5-name" class="er entityLabel">NUMBER(204)</text><rect height="24" width="21.817001342773438" y="123" x="150.1419219970703" class="er attributeBoxOdd"></rect><text style="dominant-baseline: middle; font-size: 10.2px;" transform="translate(155.1419219970703,135)" y="0" x="0" id="text-entity-TOURISTPLACES-70ee94bd-f4a0-5d2b-9c19-da2ff545fffb-attr-5-key" class="er entityLabel"></text><rect height="24" width="74.96875" y="147" x="0" class="er attributeBoxEven"></rect><text style="dominant-baseline: middle; font-size: 10.2px;" transform="translate(5,159)" y="0" x="0" id="text-entity-TOURISTPLACES-70ee94bd-f4a0-5d2b-9c19-da2ff545fffb-attr-6-type" class="er entityLabel">operatingArea</text><rect height="24" width="75.17317199707031" y="147" x="74.96875" class="er attributeBoxEven"></rect><text style="dominant-baseline: middle; font-size: 10.2px;" transform="translate(79.96875,159)" y="0" x="0" id="text-entity-TOURISTPLACES-70ee94bd-f4a0-5d2b-9c19-da2ff545fffb-attr-6-name" class="er entityLabel">VARCHAR(50)</text><rect height="24" width="21.817001342773438" y="147" x="150.1419219970703" class="er attributeBoxEven"></rect><text style="dominant-baseline: middle; font-size: 10.2px;" transform="translate(155.1419219970703,159)" y="0" x="0" id="text-entity-TOURISTPLACES-70ee94bd-f4a0-5d2b-9c19-da2ff545fffb-attr-6-key" class="er entityLabel">FK</text><rect height="24" width="74.96875" y="171" x="0" class="er attributeBoxOdd"></rect><text style="dominant-baseline: middle; font-size: 10.2px;" transform="translate(5,183)" y="0" x="0" id="text-entity-TOURISTPLACES-70ee94bd-f4a0-5d2b-9c19-da2ff545fffb-attr-7-type" class="er entityLabel">packageId</text><rect height="24" width="75.17317199707031" y="171" x="74.96875" class="er attributeBoxOdd"></rect><text style="dominant-baseline: middle; font-size: 10.2px;" transform="translate(79.96875,183)" y="0" x="0" id="text-entity-TOURISTPLACES-70ee94bd-f4a0-5d2b-9c19-da2ff545fffb-attr-7-name" class="er entityLabel">VARCHAR(200)</text><rect height="24" width="21.817001342773438" y="171" x="150.1419219970703" class="er attributeBoxOdd"></rect><text style="dominant-baseline: middle; font-size: 10.2px;" transform="translate(155.1419219970703,183)" y="0" x="0" id="text-entity-TOURISTPLACES-70ee94bd-f4a0-5d2b-9c19-da2ff545fffb-attr-7-key" class="er entityLabel">FK</text></g><g transform="translate(289.9284133911133,562 )" id="entity-TOURGUIDES-1eee2cd8-45b3-58da-ab38-e1a8d736ad41"><rect height="291" width="161.40037536621094" y="0" x="0" class="er entityBox"></rect><text style="dominant-baseline: middle; text-anchor: middle; font-size: 12px;" transform="translate(80.70018768310547,13.5)" y="0" x="0" id="text-entity-TOURGUIDES-1eee2cd8-45b3-58da-ab38-e1a8d736ad41" class="er entityLabel">TOUR_GUIDES</text><rect height="24" width="64.41020202636719" y="27" x="0" class="er attributeBoxOdd"></rect><text style="dominant-baseline: middle; font-size: 10.2px;" transform="translate(5,39)" y="0" x="0" id="text-entity-TOURGUIDES-1eee2cd8-45b3-58da-ab38-e1a8d736ad41-attr-1-type" class="er entityLabel">id</text><rect height="24" width="75.17317199707031" y="27" x="64.41020202636719" class="er attributeBoxOdd"></rect><text style="dominant-baseline: middle; font-size: 10.2px;" transform="translate(69.41020202636719,39)" y="0" x="0" id="text-entity-TOURGUIDES-1eee2cd8-45b3-58da-ab38-e1a8d736ad41-attr-1-name" class="er entityLabel">INTEGER</text><rect height="24" width="21.817001342773438" y="27" x="139.5833740234375" class="er attributeBoxOdd"></rect><text style="dominant-baseline: middle; font-size: 10.2px;" transform="translate(144.5833740234375,39)" y="0" x="0" id="text-entity-TOURGUIDES-1eee2cd8-45b3-58da-ab38-e1a8d736ad41-attr-1-key" class="er entityLabel">PK</text><rect height="24" width="64.41020202636719" y="51" x="0" class="er attributeBoxEven"></rect><text style="dominant-baseline: middle; font-size: 10.2px;" transform="translate(5,63)" y="0" x="0" id="text-entity-TOURGUIDES-1eee2cd8-45b3-58da-ab38-e1a8d736ad41-attr-2-type" class="er entityLabel">username</text><rect height="24" width="75.17317199707031" y="51" x="64.41020202636719" class="er attributeBoxEven"></rect><text style="dominant-baseline: middle; font-size: 10.2px;" transform="translate(69.41020202636719,63)" y="0" x="0" id="text-entity-TOURGUIDES-1eee2cd8-45b3-58da-ab38-e1a8d736ad41-attr-2-name" class="er entityLabel">VARCHAR(100)</text><rect height="24" width="21.817001342773438" y="51" x="139.5833740234375" class="er attributeBoxEven"></rect><text style="dominant-baseline: middle; font-size: 10.2px;" transform="translate(144.5833740234375,63)" y="0" x="0" id="text-entity-TOURGUIDES-1eee2cd8-45b3-58da-ab38-e1a8d736ad41-attr-2-key" class="er entityLabel"></text><rect height="24" width="64.41020202636719" y="75" x="0" class="er attributeBoxOdd"></rect><text style="dominant-baseline: middle; font-size: 10.2px;" transform="translate(5,87)" y="0" x="0" id="text-entity-TOURGUIDES-1eee2cd8-45b3-58da-ab38-e1a8d736ad41-attr-3-type" class="er entityLabel">email</text><rect height="24" width="75.17317199707031" y="75" x="64.41020202636719" class="er attributeBoxOdd"></rect><text style="dominant-baseline: middle; font-size: 10.2px;" transform="translate(69.41020202636719,87)" y="0" x="0" id="text-entity-TOURGUIDES-1eee2cd8-45b3-58da-ab38-e1a8d736ad41-attr-3-name" class="er entityLabel">VARCHAR(50)</text><rect height="24" width="21.817001342773438" y="75" x="139.5833740234375" class="er attributeBoxOdd"></rect><text style="dominant-baseline: middle; font-size: 10.2px;" transform="translate(144.5833740234375,87)" y="0" x="0" id="text-entity-TOURGUIDES-1eee2cd8-45b3-58da-ab38-e1a8d736ad41-attr-3-key" class="er entityLabel"></text><rect height="24" width="64.41020202636719" y="99" x="0" class="er attributeBoxEven"></rect><text style="dominant-baseline: middle; font-size: 10.2px;" transform="translate(5,111)" y="0" x="0" id="text-entity-TOURGUIDES-1eee2cd8-45b3-58da-ab38-e1a8d736ad41-attr-4-type" class="er entityLabel">sex</text><rect height="24" width="75.17317199707031" y="99" x="64.41020202636719" class="er attributeBoxEven"></rect><text style="dominant-baseline: middle; font-size: 10.2px;" transform="translate(69.41020202636719,111)" y="0" x="0" id="text-entity-TOURGUIDES-1eee2cd8-45b3-58da-ab38-e1a8d736ad41-attr-4-name" class="er entityLabel">VARCHAR(20)</text><rect height="24" width="21.817001342773438" y="99" x="139.5833740234375" class="er attributeBoxEven"></rect><text style="dominant-baseline: middle; font-size: 10.2px;" transform="translate(144.5833740234375,111)" y="0" x="0" id="text-entity-TOURGUIDES-1eee2cd8-45b3-58da-ab38-e1a8d736ad41-attr-4-key" class="er entityLabel"></text><rect height="24" width="64.41020202636719" y="123" x="0" class="er attributeBoxOdd"></rect><text style="dominant-baseline: middle; font-size: 10.2px;" transform="translate(5,135)" y="0" x="0" id="text-entity-TOURGUIDES-1eee2cd8-45b3-58da-ab38-e1a8d736ad41-attr-5-type" class="er entityLabel">stars</text><rect height="24" width="75.17317199707031" y="123" x="64.41020202636719" class="er attributeBoxOdd"></rect><text style="dominant-baseline: middle; font-size: 10.2px;" transform="translate(69.41020202636719,135)" y="0" x="0" id="text-entity-TOURGUIDES-1eee2cd8-45b3-58da-ab38-e1a8d736ad41-attr-5-name" class="er entityLabel">NUMBER(32)</text><rect height="24" width="21.817001342773438" y="123" x="139.5833740234375" class="er attributeBoxOdd"></rect><text style="dominant-baseline: middle; font-size: 10.2px;" transform="translate(144.5833740234375,135)" y="0" x="0" id="text-entity-TOURGUIDES-1eee2cd8-45b3-58da-ab38-e1a8d736ad41-attr-5-key" class="er entityLabel"></text><rect height="24" width="64.41020202636719" y="147" x="0" class="er attributeBoxEven"></rect><text style="dominant-baseline: middle; font-size: 10.2px;" transform="translate(5,159)" y="0" x="0" id="text-entity-TOURGUIDES-1eee2cd8-45b3-58da-ab38-e1a8d736ad41-attr-6-type" class="er entityLabel">phone</text><rect height="24" width="75.17317199707031" y="147" x="64.41020202636719" class="er attributeBoxEven"></rect><text style="dominant-baseline: middle; font-size: 10.2px;" transform="translate(69.41020202636719,159)" y="0" x="0" id="text-entity-TOURGUIDES-1eee2cd8-45b3-58da-ab38-e1a8d736ad41-attr-6-name" class="er entityLabel">VARCHAR(50)</text><rect height="24" width="21.817001342773438" y="147" x="139.5833740234375" class="er attributeBoxEven"></rect><text style="dominant-baseline: middle; font-size: 10.2px;" transform="translate(144.5833740234375,159)" y="0" x="0" id="text-entity-TOURGUIDES-1eee2cd8-45b3-58da-ab38-e1a8d736ad41-attr-6-key" class="er entityLabel"></text><rect height="24" width="64.41020202636719" y="171" x="0" class="er attributeBoxOdd"></rect><text style="dominant-baseline: middle; font-size: 10.2px;" transform="translate(5,183)" y="0" x="0" id="text-entity-TOURGUIDES-1eee2cd8-45b3-58da-ab38-e1a8d736ad41-attr-7-type" class="er entityLabel">experience</text><rect height="24" width="75.17317199707031" y="171" x="64.41020202636719" class="er attributeBoxOdd"></rect><text style="dominant-baseline: middle; font-size: 10.2px;" transform="translate(69.41020202636719,183)" y="0" x="0" id="text-entity-TOURGUIDES-1eee2cd8-45b3-58da-ab38-e1a8d736ad41-attr-7-name" class="er entityLabel">VARCHAR(50)</text><rect height="24" width="21.817001342773438" y="171" x="139.5833740234375" class="er attributeBoxOdd"></rect><text style="dominant-baseline: middle; font-size: 10.2px;" transform="translate(144.5833740234375,183)" y="0" x="0" id="text-entity-TOURGUIDES-1eee2cd8-45b3-58da-ab38-e1a8d736ad41-attr-7-key" class="er entityLabel"></text><rect height="24" width="64.41020202636719" y="195" x="0" class="er attributeBoxEven"></rect><text style="dominant-baseline: middle; font-size: 10.2px;" transform="translate(5,207)" y="0" x="0" id="text-entity-TOURGUIDES-1eee2cd8-45b3-58da-ab38-e1a8d736ad41-attr-8-type" class="er entityLabel">area</text><rect height="24" width="75.17317199707031" y="195" x="64.41020202636719" class="er attributeBoxEven"></rect><text style="dominant-baseline: middle; font-size: 10.2px;" transform="translate(69.41020202636719,207)" y="0" x="0" id="text-entity-TOURGUIDES-1eee2cd8-45b3-58da-ab38-e1a8d736ad41-attr-8-name" class="er entityLabel">VARCHAR(50)</text><rect height="24" width="21.817001342773438" y="195" x="139.5833740234375" class="er attributeBoxEven"></rect><text style="dominant-baseline: middle; font-size: 10.2px;" transform="translate(144.5833740234375,207)" y="0" x="0" id="text-entity-TOURGUIDES-1eee2cd8-45b3-58da-ab38-e1a8d736ad41-attr-8-key" class="er entityLabel">FK</text><rect height="24" width="64.41020202636719" y="219" x="0" class="er attributeBoxOdd"></rect><text style="dominant-baseline: middle; font-size: 10.2px;" transform="translate(5,231)" y="0" x="0" id="text-entity-TOURGUIDES-1eee2cd8-45b3-58da-ab38-e1a8d736ad41-attr-9-type" class="er entityLabel">age</text><rect height="24" width="75.17317199707031" y="219" x="64.41020202636719" class="er attributeBoxOdd"></rect><text style="dominant-baseline: middle; font-size: 10.2px;" transform="translate(69.41020202636719,231)" y="0" x="0" id="text-entity-TOURGUIDES-1eee2cd8-45b3-58da-ab38-e1a8d736ad41-attr-9-name" class="er entityLabel">VARCHAR(50)</text><rect height="24" width="21.817001342773438" y="219" x="139.5833740234375" class="er attributeBoxOdd"></rect><text style="dominant-baseline: middle; font-size: 10.2px;" transform="translate(144.5833740234375,231)" y="0" x="0" id="text-entity-TOURGUIDES-1eee2cd8-45b3-58da-ab38-e1a8d736ad41-attr-9-key" class="er entityLabel"></text><rect height="24" width="64.41020202636719" y="243" x="0" class="er attributeBoxEven"></rect><text style="dominant-baseline: middle; font-size: 10.2px;" transform="translate(5,255)" y="0" x="0" id="text-entity-TOURGUIDES-1eee2cd8-45b3-58da-ab38-e1a8d736ad41-attr-10-type" class="er entityLabel">bloodGroup</text><rect height="24" width="75.17317199707031" y="243" x="64.41020202636719" class="er attributeBoxEven"></rect><text style="dominant-baseline: middle; font-size: 10.2px;" transform="translate(69.41020202636719,255)" y="0" x="0" id="text-entity-TOURGUIDES-1eee2cd8-45b3-58da-ab38-e1a8d736ad41-attr-10-name" class="er entityLabel">VARCHAR(50)</text><rect height="24" width="21.817001342773438" y="243" x="139.5833740234375" class="er attributeBoxEven"></rect><text style="dominant-baseline: middle; font-size: 10.2px;" transform="translate(144.5833740234375,255)" y="0" x="0" id="text-entity-TOURGUIDES-1eee2cd8-45b3-58da-ab38-e1a8d736ad41-attr-10-key" class="er entityLabel"></text><rect height="24" width="64.41020202636719" y="267" x="0" class="er attributeBoxOdd"></rect><text style="dominant-baseline: middle; font-size: 10.2px;" transform="translate(5,279)" y="0" x="0" id="text-entity-TOURGUIDES-1eee2cd8-45b3-58da-ab38-e1a8d736ad41-attr-11-type" class="er entityLabel">availability</text><rect height="24" width="75.17317199707031" y="267" x="64.41020202636719" class="er attributeBoxOdd"></rect><text style="dominant-baseline: middle; font-size: 10.2px;" transform="translate(69.41020202636719,279)" y="0" x="0" id="text-entity-TOURGUIDES-1eee2cd8-45b3-58da-ab38-e1a8d736ad41-attr-11-name" class="er entityLabel">VARCHAR(50)</text><rect height="24" width="21.817001342773438" y="267" x="139.5833740234375" class="er attributeBoxOdd"></rect><text style="dominant-baseline: middle; font-size: 10.2px;" transform="translate(144.5833740234375,279)" y="0" x="0" id="text-entity-TOURGUIDES-1eee2cd8-45b3-58da-ab38-e1a8d736ad41-attr-11-key" class="er entityLabel"></text></g><g transform="translate(551.3287887573242,610 )" id="entity-HOTELS-40fbd89f-88d2-5fc7-a1fb-cef27d20e5ee"><rect height="195" width="171.95892333984375" y="0" x="0" class="er entityBox"></rect><text style="dominant-baseline: middle; text-anchor: middle; font-size: 12px;" transform="translate(85.97946166992188,13.5)" y="0" x="0" id="text-entity-HOTELS-40fbd89f-88d2-5fc7-a1fb-cef27d20e5ee" class="er entityLabel">HOTELS</text><rect height="24" width="74.96875" y="27" x="0" class="er attributeBoxOdd"></rect><text style="dominant-baseline: middle; font-size: 10.2px;" transform="translate(5,39)" y="0" x="0" id="text-entity-HOTELS-40fbd89f-88d2-5fc7-a1fb-cef27d20e5ee-attr-1-type" class="er entityLabel">id</text><rect height="24" width="75.17317199707031" y="27" x="74.96875" class="er attributeBoxOdd"></rect><text style="dominant-baseline: middle; font-size: 10.2px;" transform="translate(79.96875,39)" y="0" x="0" id="text-entity-HOTELS-40fbd89f-88d2-5fc7-a1fb-cef27d20e5ee-attr-1-name" class="er entityLabel">INTEGER</text><rect height="24" width="21.817001342773438" y="27" x="150.1419219970703" class="er attributeBoxOdd"></rect><text style="dominant-baseline: middle; font-size: 10.2px;" transform="translate(155.1419219970703,39)" y="0" x="0" id="text-entity-HOTELS-40fbd89f-88d2-5fc7-a1fb-cef27d20e5ee-attr-1-key" class="er entityLabel">PK</text><rect height="24" width="74.96875" y="51" x="0" class="er attributeBoxEven"></rect><text style="dominant-baseline: middle; font-size: 10.2px;" transform="translate(5,63)" y="0" x="0" id="text-entity-HOTELS-40fbd89f-88d2-5fc7-a1fb-cef27d20e5ee-attr-2-type" class="er entityLabel">name</text><rect height="24" width="75.17317199707031" y="51" x="74.96875" class="er attributeBoxEven"></rect><text style="dominant-baseline: middle; font-size: 10.2px;" transform="translate(79.96875,63)" y="0" x="0" id="text-entity-HOTELS-40fbd89f-88d2-5fc7-a1fb-cef27d20e5ee-attr-2-name" class="er entityLabel">VARCHAR(50)</text><rect height="24" width="21.817001342773438" y="51" x="150.1419219970703" class="er attributeBoxEven"></rect><text style="dominant-baseline: middle; font-size: 10.2px;" transform="translate(155.1419219970703,63)" y="0" x="0" id="text-entity-HOTELS-40fbd89f-88d2-5fc7-a1fb-cef27d20e5ee-attr-2-key" class="er entityLabel"></text><rect height="24" width="74.96875" y="75" x="0" class="er attributeBoxOdd"></rect><text style="dominant-baseline: middle; font-size: 10.2px;" transform="translate(5,87)" y="0" x="0" id="text-entity-HOTELS-40fbd89f-88d2-5fc7-a1fb-cef27d20e5ee-attr-3-type" class="er entityLabel">description</text><rect height="24" width="75.17317199707031" y="75" x="74.96875" class="er attributeBoxOdd"></rect><text style="dominant-baseline: middle; font-size: 10.2px;" transform="translate(79.96875,87)" y="0" x="0" id="text-entity-HOTELS-40fbd89f-88d2-5fc7-a1fb-cef27d20e5ee-attr-3-name" class="er entityLabel">VARCHAR(500)</text><rect height="24" width="21.817001342773438" y="75" x="150.1419219970703" class="er attributeBoxOdd"></rect><text style="dominant-baseline: middle; font-size: 10.2px;" transform="translate(155.1419219970703,87)" y="0" x="0" id="text-entity-HOTELS-40fbd89f-88d2-5fc7-a1fb-cef27d20e5ee-attr-3-key" class="er entityLabel"></text><rect height="24" width="74.96875" y="99" x="0" class="er attributeBoxEven"></rect><text style="dominant-baseline: middle; font-size: 10.2px;" transform="translate(5,111)" y="0" x="0" id="text-entity-HOTELS-40fbd89f-88d2-5fc7-a1fb-cef27d20e5ee-attr-4-type" class="er entityLabel">stars</text><rect height="24" width="75.17317199707031" y="99" x="74.96875" class="er attributeBoxEven"></rect><text style="dominant-baseline: middle; font-size: 10.2px;" transform="translate(79.96875,111)" y="0" x="0" id="text-entity-HOTELS-40fbd89f-88d2-5fc7-a1fb-cef27d20e5ee-attr-4-name" class="er entityLabel">NUMBER(32)</text><rect height="24" width="21.817001342773438" y="99" x="150.1419219970703" class="er attributeBoxEven"></rect><text style="dominant-baseline: middle; font-size: 10.2px;" transform="translate(155.1419219970703,111)" y="0" x="0" id="text-entity-HOTELS-40fbd89f-88d2-5fc7-a1fb-cef27d20e5ee-attr-4-key" class="er entityLabel"></text><rect height="24" width="74.96875" y="123" x="0" class="er attributeBoxOdd"></rect><text style="dominant-baseline: middle; font-size: 10.2px;" transform="translate(5,135)" y="0" x="0" id="text-entity-HOTELS-40fbd89f-88d2-5fc7-a1fb-cef27d20e5ee-attr-5-type" class="er entityLabel">price</text><rect height="24" width="75.17317199707031" y="123" x="74.96875" class="er attributeBoxOdd"></rect><text style="dominant-baseline: middle; font-size: 10.2px;" transform="translate(79.96875,135)" y="0" x="0" id="text-entity-HOTELS-40fbd89f-88d2-5fc7-a1fb-cef27d20e5ee-attr-5-name" class="er entityLabel">NUMBER(24)</text><rect height="24" width="21.817001342773438" y="123" x="150.1419219970703" class="er attributeBoxOdd"></rect><text style="dominant-baseline: middle; font-size: 10.2px;" transform="translate(155.1419219970703,135)" y="0" x="0" id="text-entity-HOTELS-40fbd89f-88d2-5fc7-a1fb-cef27d20e5ee-attr-5-key" class="er entityLabel"></text><rect height="24" width="74.96875" y="147" x="0" class="er attributeBoxEven"></rect><text style="dominant-baseline: middle; font-size: 10.2px;" transform="translate(5,159)" y="0" x="0" id="text-entity-HOTELS-40fbd89f-88d2-5fc7-a1fb-cef27d20e5ee-attr-6-type" class="er entityLabel">operatingArea</text><rect height="24" width="75.17317199707031" y="147" x="74.96875" class="er attributeBoxEven"></rect><text style="dominant-baseline: middle; font-size: 10.2px;" transform="translate(79.96875,159)" y="0" x="0" id="text-entity-HOTELS-40fbd89f-88d2-5fc7-a1fb-cef27d20e5ee-attr-6-name" class="er entityLabel">VARCHAR(50)</text><rect height="24" width="21.817001342773438" y="147" x="150.1419219970703" class="er attributeBoxEven"></rect><text style="dominant-baseline: middle; font-size: 10.2px;" transform="translate(155.1419219970703,159)" y="0" x="0" id="text-entity-HOTELS-40fbd89f-88d2-5fc7-a1fb-cef27d20e5ee-attr-6-key" class="er entityLabel"></text><rect height="24" width="74.96875" y="171" x="0" class="er attributeBoxOdd"></rect><text style="dominant-baseline: middle; font-size: 10.2px;" transform="translate(5,183)" y="0" x="0" id="text-entity-HOTELS-40fbd89f-88d2-5fc7-a1fb-cef27d20e5ee-attr-7-type" class="er entityLabel">packageId</text><rect height="24" width="75.17317199707031" y="171" x="74.96875" class="er attributeBoxOdd"></rect><text style="dominant-baseline: middle; font-size: 10.2px;" transform="translate(79.96875,183)" y="0" x="0" id="text-entity-HOTELS-40fbd89f-88d2-5fc7-a1fb-cef27d20e5ee-attr-7-name" class="er entityLabel">VARCHAR(50)</text><rect height="24" width="21.817001342773438" y="171" x="150.1419219970703" class="er attributeBoxOdd"></rect><text style="dominant-baseline: middle; font-size: 10.2px;" transform="translate(155.1419219970703,183)" y="0" x="0" id="text-entity-HOTELS-40fbd89f-88d2-5fc7-a1fb-cef27d20e5ee-attr-7-key" class="er entityLabel">FK</text></g><g transform="translate(20,291 )" id="entity-AGENCIES-24aed41c-01d1-559e-b5b1-b4f6f1d14d52"><rect height="147" width="173.30267333984375" y="0" x="0" class="er entityBox"></rect><text style="dominant-baseline: middle; text-anchor: middle; font-size: 12px;" transform="translate(86.65133666992188,13.5)" y="0" x="0" id="text-entity-AGENCIES-24aed41c-01d1-559e-b5b1-b4f6f1d14d52" class="er entityLabel">AGENCIES</text><rect height="24" width="76.3125" y="27" x="0" class="er attributeBoxOdd"></rect><text style="dominant-baseline: middle; font-size: 10.2px;" transform="translate(5,39)" y="0" x="0" id="text-entity-AGENCIES-24aed41c-01d1-559e-b5b1-b4f6f1d14d52-attr-1-type" class="er entityLabel">id</text><rect height="24" width="75.17317199707031" y="27" x="76.3125" class="er attributeBoxOdd"></rect><text style="dominant-baseline: middle; font-size: 10.2px;" transform="translate(81.3125,39)" y="0" x="0" id="text-entity-AGENCIES-24aed41c-01d1-559e-b5b1-b4f6f1d14d52-attr-1-name" class="er entityLabel">INTEGER</text><rect height="24" width="21.817001342773438" y="27" x="151.4856719970703" class="er attributeBoxOdd"></rect><text style="dominant-baseline: middle; font-size: 10.2px;" transform="translate(156.4856719970703,39)" y="0" x="0" id="text-entity-AGENCIES-24aed41c-01d1-559e-b5b1-b4f6f1d14d52-attr-1-key" class="er entityLabel">PK</text><rect height="24" width="76.3125" y="51" x="0" class="er attributeBoxEven"></rect><text style="dominant-baseline: middle; font-size: 10.2px;" transform="translate(5,63)" y="0" x="0" id="text-entity-AGENCIES-24aed41c-01d1-559e-b5b1-b4f6f1d14d52-attr-2-type" class="er entityLabel">name</text><rect height="24" width="75.17317199707031" y="51" x="76.3125" class="er attributeBoxEven"></rect><text style="dominant-baseline: middle; font-size: 10.2px;" transform="translate(81.3125,63)" y="0" x="0" id="text-entity-AGENCIES-24aed41c-01d1-559e-b5b1-b4f6f1d14d52-attr-2-name" class="er entityLabel">VARCHAR(50)</text><rect height="24" width="21.817001342773438" y="51" x="151.4856719970703" class="er attributeBoxEven"></rect><text style="dominant-baseline: middle; font-size: 10.2px;" transform="translate(156.4856719970703,63)" y="0" x="0" id="text-entity-AGENCIES-24aed41c-01d1-559e-b5b1-b4f6f1d14d52-attr-2-key" class="er entityLabel"></text><rect height="24" width="76.3125" y="75" x="0" class="er attributeBoxOdd"></rect><text style="dominant-baseline: middle; font-size: 10.2px;" transform="translate(5,87)" y="0" x="0" id="text-entity-AGENCIES-24aed41c-01d1-559e-b5b1-b4f6f1d14d52-attr-3-type" class="er entityLabel">isInternational</text><rect height="24" width="75.17317199707031" y="75" x="76.3125" class="er attributeBoxOdd"></rect><text style="dominant-baseline: middle; font-size: 10.2px;" transform="translate(81.3125,87)" y="0" x="0" id="text-entity-AGENCIES-24aed41c-01d1-559e-b5b1-b4f6f1d14d52-attr-3-name" class="er entityLabel">VARCHAR(50)</text><rect height="24" width="21.817001342773438" y="75" x="151.4856719970703" class="er attributeBoxOdd"></rect><text style="dominant-baseline: middle; font-size: 10.2px;" transform="translate(156.4856719970703,87)" y="0" x="0" id="text-entity-AGENCIES-24aed41c-01d1-559e-b5b1-b4f6f1d14d52-attr-3-key" class="er entityLabel"></text><rect height="24" width="76.3125" y="99" x="0" class="er attributeBoxEven"></rect><text style="dominant-baseline: middle; font-size: 10.2px;" transform="translate(5,111)" y="0" x="0" id="text-entity-AGENCIES-24aed41c-01d1-559e-b5b1-b4f6f1d14d52-attr-4-type" class="er entityLabel">country</text><rect height="24" width="75.17317199707031" y="99" x="76.3125" class="er attributeBoxEven"></rect><text style="dominant-baseline: middle; font-size: 10.2px;" transform="translate(81.3125,111)" y="0" x="0" id="text-entity-AGENCIES-24aed41c-01d1-559e-b5b1-b4f6f1d14d52-attr-4-name" class="er entityLabel">VARCHAR(100)</text><rect height="24" width="21.817001342773438" y="99" x="151.4856719970703" class="er attributeBoxEven"></rect><text style="dominant-baseline: middle; font-size: 10.2px;" transform="translate(156.4856719970703,111)" y="0" x="0" id="text-entity-AGENCIES-24aed41c-01d1-559e-b5b1-b4f6f1d14d52-attr-4-key" class="er entityLabel"></text><rect height="24" width="76.3125" y="123" x="0" class="er attributeBoxOdd"></rect><text style="dominant-baseline: middle; font-size: 10.2px;" transform="translate(5,135)" y="0" x="0" id="text-entity-AGENCIES-24aed41c-01d1-559e-b5b1-b4f6f1d14d52-attr-5-type" class="er entityLabel">userId</text><rect height="24" width="75.17317199707031" y="123" x="76.3125" class="er attributeBoxOdd"></rect><text style="dominant-baseline: middle; font-size: 10.2px;" transform="translate(81.3125,135)" y="0" x="0" id="text-entity-AGENCIES-24aed41c-01d1-559e-b5b1-b4f6f1d14d52-attr-5-name" class="er entityLabel">INTEGER</text><rect height="24" width="21.817001342773438" y="123" x="151.4856719970703" class="er attributeBoxOdd"></rect><text style="dominant-baseline: middle; font-size: 10.2px;" transform="translate(156.4856719970703,135)" y="0" x="0" id="text-entity-AGENCIES-24aed41c-01d1-559e-b5b1-b4f6f1d14d52-attr-5-key" class="er entityLabel">FK</text></g><g transform="translate(32.027793884277344,610 )" id="entity-PACKAGES-ac064128-20bc-566c-acf2-25b69759064a"><rect height="195" width="149.24708557128906" y="0" x="0" class="er entityBox"></rect><text style="dominant-baseline: middle; text-anchor: middle; font-size: 12px;" transform="translate(74.62354278564453,13.5)" y="0" x="0" id="text-entity-PACKAGES-ac064128-20bc-566c-acf2-25b69759064a" class="er entityLabel">PACKAGES</text><rect height="24" width="52.25691223144531" y="27" x="0" class="er attributeBoxOdd"></rect><text style="dominant-baseline: middle; font-size: 10.2px;" transform="translate(5,39)" y="0" x="0" id="text-entity-PACKAGES-ac064128-20bc-566c-acf2-25b69759064a-attr-1-type" class="er entityLabel">id</text><rect height="24" width="75.17317199707031" y="27" x="52.25691223144531" class="er attributeBoxOdd"></rect><text style="dominant-baseline: middle; font-size: 10.2px;" transform="translate(57.25691223144531,39)" y="0" x="0" id="text-entity-PACKAGES-ac064128-20bc-566c-acf2-25b69759064a-attr-1-name" class="er entityLabel">INTEGER</text><rect height="24" width="21.817001342773438" y="27" x="127.43008422851562" class="er attributeBoxOdd"></rect><text style="dominant-baseline: middle; font-size: 10.2px;" transform="translate(132.43008422851562,39)" y="0" x="0" id="text-entity-PACKAGES-ac064128-20bc-566c-acf2-25b69759064a-attr-1-key" class="er entityLabel">PK</text><rect height="24" width="52.25691223144531" y="51" x="0" class="er attributeBoxEven"></rect><text style="dominant-baseline: middle; font-size: 10.2px;" transform="translate(5,63)" y="0" x="0" id="text-entity-PACKAGES-ac064128-20bc-566c-acf2-25b69759064a-attr-2-type" class="er entityLabel">name</text><rect height="24" width="75.17317199707031" y="51" x="52.25691223144531" class="er attributeBoxEven"></rect><text style="dominant-baseline: middle; font-size: 10.2px;" transform="translate(57.25691223144531,63)" y="0" x="0" id="text-entity-PACKAGES-ac064128-20bc-566c-acf2-25b69759064a-attr-2-name" class="er entityLabel">VARCHAR(100)</text><rect height="24" width="21.817001342773438" y="51" x="127.43008422851562" class="er attributeBoxEven"></rect><text style="dominant-baseline: middle; font-size: 10.2px;" transform="translate(132.43008422851562,63)" y="0" x="0" id="text-entity-PACKAGES-ac064128-20bc-566c-acf2-25b69759064a-attr-2-key" class="er entityLabel"></text><rect height="24" width="52.25691223144531" y="75" x="0" class="er attributeBoxOdd"></rect><text style="dominant-baseline: middle; font-size: 10.2px;" transform="translate(5,87)" y="0" x="0" id="text-entity-PACKAGES-ac064128-20bc-566c-acf2-25b69759064a-attr-3-type" class="er entityLabel">AgencyId</text><rect height="24" width="75.17317199707031" y="75" x="52.25691223144531" class="er attributeBoxOdd"></rect><text style="dominant-baseline: middle; font-size: 10.2px;" transform="translate(57.25691223144531,87)" y="0" x="0" id="text-entity-PACKAGES-ac064128-20bc-566c-acf2-25b69759064a-attr-3-name" class="er entityLabel">INTEGER</text><rect height="24" width="21.817001342773438" y="75" x="127.43008422851562" class="er attributeBoxOdd"></rect><text style="dominant-baseline: middle; font-size: 10.2px;" transform="translate(132.43008422851562,87)" y="0" x="0" id="text-entity-PACKAGES-ac064128-20bc-566c-acf2-25b69759064a-attr-3-key" class="er entityLabel">FK</text><rect height="24" width="52.25691223144531" y="99" x="0" class="er attributeBoxEven"></rect><text style="dominant-baseline: middle; font-size: 10.2px;" transform="translate(5,111)" y="0" x="0" id="text-entity-PACKAGES-ac064128-20bc-566c-acf2-25b69759064a-attr-4-type" class="er entityLabel">Area</text><rect height="24" width="75.17317199707031" y="99" x="52.25691223144531" class="er attributeBoxEven"></rect><text style="dominant-baseline: middle; font-size: 10.2px;" transform="translate(57.25691223144531,111)" y="0" x="0" id="text-entity-PACKAGES-ac064128-20bc-566c-acf2-25b69759064a-attr-4-name" class="er entityLabel">VARCHAR(100)</text><rect height="24" width="21.817001342773438" y="99" x="127.43008422851562" class="er attributeBoxEven"></rect><text style="dominant-baseline: middle; font-size: 10.2px;" transform="translate(132.43008422851562,111)" y="0" x="0" id="text-entity-PACKAGES-ac064128-20bc-566c-acf2-25b69759064a-attr-4-key" class="er entityLabel"></text><rect height="24" width="52.25691223144531" y="123" x="0" class="er attributeBoxOdd"></rect><text style="dominant-baseline: middle; font-size: 10.2px;" transform="translate(5,135)" y="0" x="0" id="text-entity-PACKAGES-ac064128-20bc-566c-acf2-25b69759064a-attr-5-type" class="er entityLabel">Details</text><rect height="24" width="75.17317199707031" y="123" x="52.25691223144531" class="er attributeBoxOdd"></rect><text style="dominant-baseline: middle; font-size: 10.2px;" transform="translate(57.25691223144531,135)" y="0" x="0" id="text-entity-PACKAGES-ac064128-20bc-566c-acf2-25b69759064a-attr-5-name" class="er entityLabel">VARCHAR(500)</text><rect height="24" width="21.817001342773438" y="123" x="127.43008422851562" class="er attributeBoxOdd"></rect><text style="dominant-baseline: middle; font-size: 10.2px;" transform="translate(132.43008422851562,135)" y="0" x="0" id="text-entity-PACKAGES-ac064128-20bc-566c-acf2-25b69759064a-attr-5-key" class="er entityLabel"></text><rect height="24" width="52.25691223144531" y="147" x="0" class="er attributeBoxEven"></rect><text style="dominant-baseline: middle; font-size: 10.2px;" transform="translate(5,159)" y="0" x="0" id="text-entity-PACKAGES-ac064128-20bc-566c-acf2-25b69759064a-attr-6-type" class="er entityLabel">Duration</text><rect height="24" width="75.17317199707031" y="147" x="52.25691223144531" class="er attributeBoxEven"></rect><text style="dominant-baseline: middle; font-size: 10.2px;" transform="translate(57.25691223144531,159)" y="0" x="0" id="text-entity-PACKAGES-ac064128-20bc-566c-acf2-25b69759064a-attr-6-name" class="er entityLabel">VARCHAR(100)</text><rect height="24" width="21.817001342773438" y="147" x="127.43008422851562" class="er attributeBoxEven"></rect><text style="dominant-baseline: middle; font-size: 10.2px;" transform="translate(132.43008422851562,159)" y="0" x="0" id="text-entity-PACKAGES-ac064128-20bc-566c-acf2-25b69759064a-attr-6-key" class="er entityLabel"></text><rect height="24" width="52.25691223144531" y="171" x="0" class="er attributeBoxOdd"></rect><text style="dominant-baseline: middle; font-size: 10.2px;" transform="translate(5,183)" y="0" x="0" id="text-entity-PACKAGES-ac064128-20bc-566c-acf2-25b69759064a-attr-7-type" class="er entityLabel">Price</text><rect height="24" width="75.17317199707031" y="171" x="52.25691223144531" class="er attributeBoxOdd"></rect><text style="dominant-baseline: middle; font-size: 10.2px;" transform="translate(57.25691223144531,183)" y="0" x="0" id="text-entity-PACKAGES-ac064128-20bc-566c-acf2-25b69759064a-attr-7-name" class="er entityLabel">NUMBER(24)</text><rect height="24" width="21.817001342773438" y="171" x="127.43008422851562" class="er attributeBoxOdd"></rect><text style="dominant-baseline: middle; font-size: 10.2px;" transform="translate(132.43008422851562,183)" y="0" x="0" id="text-entity-PACKAGES-ac064128-20bc-566c-acf2-25b69759064a-attr-7-key" class="er entityLabel"></text></g><rect height="17" width="6.453125" y="182.75250244140625" x="166.41998291015625" class="er relationshipLabelBox"></rect><text style="text-anchor: middle; dominant-baseline: middle; font-size: 12px;" y="191.25250244140625" x="169.64654541015625" id="rel1" class="er relationshipLabel">1</text><rect height="17" width="6.453125" y="201.408203125" x="487.1103820800781" class="er relationshipLabelBox"></rect><text style="text-anchor: middle; dominant-baseline: middle; font-size: 12px;" y="209.908203125" x="490.3369445800781" id="rel2" class="er relationshipLabel">1</text><rect height="17" width="18.765625" y="496.86712646484375" x="372.34527587890625" class="er relationshipLabelBox"></rect><text style="text-anchor: middle; dominant-baseline: middle; font-size: 12px;" y="505.36712646484375" x="381.72808837890625" id="rel3" class="er relationshipLabel">0..*</text><rect height="17" width="18.765625" y="520.0831298828125" x="622.4698486328125" class="er relationshipLabelBox"></rect><text style="text-anchor: middle; dominant-baseline: middle; font-size: 12px;" y="528.5831298828125" x="631.8526611328125" id="rel4" class="er relationshipLabel">0..*</text><rect height="17" width="18.765625" y="515.5" x="97.2681884765625" class="er relationshipLabelBox"></rect><text style="text-anchor: middle; dominant-baseline: middle; font-size: 12px;" y="524" x="106.6510009765625" id="rel5" class="er relationshipLabel">0..*</text></svg>